# xmcd
#
# Track frame offsets: 
#        150
#        9385
#        19600
#        30432
#        45470
#        61910
#        77712
#        94042
#        112842
#        129457
#        150765
#        170422
#        186985
#        203917
#        227180
#        241309
#
# Disc length: 3507 seconds
#
# Revision: 0
# Processed by: cddbd v1.4PL0 Copyright (c) Steve Scherf et al.
# Submitted via: ExactAudioCopy v0.90b3
#
DISCID=b50db110
DTITLE=Kenny Rogers - Selections From Through The Years: A Retrospecti
DTITLE=ve
DYEAR=1900
DGENRE=Country
TTITLE0=Beloved (The Scholars)
TTITLE1=That Crazy Feeling
TTITLE2=Here's That Rainy Day
TTITLE3=Just Dropped In (To See What Condition My Condition Was In) (K
TTITLE3=enny Rogers and The First Edition)
TTITLE4=Lucille
TTITLE5=The Gambler
TTITLE6=Love Will Turn You Around
TTITLE7=Islands In The Stream (Kenny Rogers and Dolly Parton)
TTITLE8=Don't Fall In Love With A Dreamer (Kenny Rogers With Kim Carne
TTITLE8=s)
TTITLE9=Through The Years
TTITLE10=What About Me (Kenny Rogers With Kim Carnes and James Ingram)
TTITLE11=Eyes That See In The Dark
TTITLE12=Twenty Years Ago
TTITLE13=I Prefer The Moonlight
TTITLE14=If You Want To Find Love
TTITLE15=Have I Told You Lately That I Love You
EXTD=
EXTT0=
EXTT1=
EXTT2=
EXTT3=
EXTT4=
EXTT5=
EXTT6=
EXTT7=
EXTT8=
EXTT9=
EXTT10=
EXTT11=
EXTT12=
EXTT13=
EXTT14=
EXTT15=
PLAYORDER=
